<svg width="35" height="33" viewBox="0 0 36 27" fill="none" xmlns="http://www.w3.org/2000/svg">
<g id="Gasto">
<path id="Vector" d="M10.96 13.4782C10.96 15.2467 11.6096 16.9426 12.7658 18.1928C13.9218 19.4434 15.4899 20.1458 17.1251 20.1458C18.7603 20.1458 20.3284 19.4433 21.4844 18.1928C22.6407 16.9426 23.2901 15.2467 23.2901 13.4782C23.2901 11.7098 22.6406 10.0138 21.4844 8.7636C20.3284 7.51307 18.7603 6.81067 17.1251 6.81067C15.4912 6.81464 13.9251 7.51844 12.7698 8.76792C11.6144 10.0174 10.9637 11.7111 10.96 13.4782ZM21.9201 13.4782C21.9201 14.8537 21.4149 16.1727 20.5156 17.1451C19.6165 18.1177 18.397 18.6641 17.1251 18.6641C15.8532 18.6641 14.6337 18.1177 13.7346 17.1451C12.8352 16.1727 12.33 14.8538 12.33 13.4782C12.33 12.1026 12.8352 10.7838 13.7346 9.81136C14.6336 8.8387 15.8532 8.29234 17.1251 8.29234C18.397 8.29234 19.6165 8.83871 20.5156 9.81136C21.4149 10.7837 21.9201 12.1026 21.9201 13.4782Z" fill="black"/>
<path id="Vector_2" d="M33.5653 18.6641C32.0531 18.6691 30.5955 19.276 29.4711 20.369C28.3467 21.4624 27.6338 22.9653 27.4687 24.5908H6.78149C6.62828 23.0956 6.00871 21.7015 5.02521 20.6376C4.04146 19.574 2.75247 18.9039 1.36993 18.7382V8.21829C2.75247 8.05259 4.04146 7.38253 5.02521 6.31886C6.00864 5.25493 6.62828 3.86089 6.78149 2.36567H27.4687C27.6338 3.99119 28.3467 5.49404 29.4711 6.58743C30.5955 7.68048 32.053 8.28737 33.5653 8.29237C33.7469 8.29237 33.9212 8.21432 34.0496 8.07541C34.1781 7.9365 34.2503 7.74799 34.2503 7.55153V3.1065C34.2503 2.51714 34.0337 1.95156 33.6484 1.53491C33.2631 1.11826 32.7401 0.884033 32.1953 0.884033H2.05498C1.51004 0.884033 0.987075 1.11819 0.601827 1.53491C0.21658 1.95164 0 2.51722 0 3.1065V23.85C0 24.4393 0.216509 25.0049 0.601827 25.4216C0.987146 25.8382 1.51011 26.0724 2.05498 26.0724H32.1953C32.7402 26.0724 33.2632 25.8383 33.6484 25.4216C34.0337 25.0048 34.2503 24.4393 34.2503 23.85V19.4049C34.2503 19.2085 34.1781 19.02 34.0496 18.8811C33.9212 18.7422 33.7469 18.6641 33.5653 18.6641ZM32.8802 3.1065V6.73661C31.8604 6.57819 30.9154 6.06688 30.1867 5.27873C29.458 4.49058 28.9852 3.46863 28.8387 2.36567H32.1952C32.3769 2.36567 32.5512 2.44372 32.6796 2.58263C32.8081 2.72153 32.8802 2.91005 32.8802 3.1065ZM2.05494 2.36567H5.41147C5.26499 3.46863 4.79221 4.49064 4.06346 5.27873C3.33471 6.06681 2.38977 6.5782 1.36993 6.73661V3.1065C1.36993 2.69739 1.67666 2.36567 2.05494 2.36567ZM1.36993 23.85V20.2199C2.40238 20.3634 3.36287 20.8684 4.1048 21.6575C4.84699 22.4466 5.32982 23.4768 5.47998 24.5908H2.05494C1.67666 24.5908 1.36993 24.2591 1.36993 23.85ZM32.1952 24.5908H28.8387C28.9852 23.4878 29.458 22.4658 30.1867 21.6777C30.9155 20.8897 31.8604 20.3783 32.8802 20.2199V23.85C32.8802 24.0464 32.8081 24.2349 32.6796 24.3738C32.5512 24.5128 32.3769 24.5908 32.1952 24.5908Z" fill="black"/>
<path id="Vector_3" d="M35.9491 13.849C36.0169 13.6635 36.0169 13.4568 35.9491 13.2712C35.9166 13.1806 35.865 13.0993 35.7983 13.0341L32.9898 10.0708C32.8656 9.92755 32.6919 9.84619 32.5103 9.84619C32.3286 9.84619 32.1552 9.92755 32.0308 10.0708C31.9011 10.21 31.8283 10.3992 31.8283 10.5966C31.8283 10.7944 31.9011 10.9836 32.0308 11.1228L33.6748 12.8859H26.3317C25.9531 12.8859 25.6467 13.2176 25.6467 13.6267C25.6467 13.8232 25.7189 14.0117 25.8473 14.1506C25.9758 14.2895 26.1501 14.3676 26.3317 14.3676H33.6751L32.0311 16.1456H32.0308C31.9011 16.2848 31.8283 16.474 31.8283 16.6715C31.8283 16.8692 31.9011 17.0584 32.0308 17.1976C32.1565 17.3385 32.3295 17.4186 32.5103 17.4199C32.6919 17.4222 32.8662 17.3415 32.9898 17.1976L35.7983 14.1602C35.8754 14.0742 35.9276 13.9661 35.9491 13.849Z" fill="black"/>
</g>
</svg>
