<svg width="35" height="33" viewBox="0 0 42 41" fill="none" xmlns="http://www.w3.org/2000/svg">
<path id="Recebimento" d="M41.9596 19.5788C42.055 19.1273 41.9799 18.6535 41.7507 18.2626L39.725 14.7897V10.8937C39.7247 10.4315 39.5551 9.98838 39.2534 9.66161C38.9514 9.33488 38.5423 9.1511 38.1155 9.15078H37.3268L36.2123 5.27154C36.0848 4.82975 35.8008 4.46089 35.4224 4.24568C35.0441 4.03048 34.6024 3.98637 34.1942 4.12348L33.616 4.31926L31.9926 1.53691C31.7637 1.14601 31.4012 0.86952 30.9843 0.767424C30.5674 0.665642 30.1304 0.747004 29.7686 0.993672L17.8455 9.15309L3.88124 9.15277C3.45476 9.15342 3.04566 9.3372 2.74394 9.66393C2.44256 9.99066 2.27286 10.4337 2.27257 10.8957V14.8841L1.41721 15.1723C1.01018 15.311 0.670195 15.6183 0.472063 16.0273C0.27364 16.4364 0.232933 16.9142 0.358332 17.3557L1.26157 20.4995L0.749792 20.8495H0.750091C0.389156 21.0975 0.133561 21.49 0.0395901 21.9415C-0.0543885 22.393 0.0204359 22.8663 0.248196 23.2581L2.2738 26.7309V30.6274C2.2744 31.0889 2.4441 31.5314 2.74517 31.8581C3.04655 32.1845 3.45508 32.3683 3.88125 32.3692H4.67079L5.78534 36.2485C5.91223 36.6909 6.19596 37.0604 6.57457 37.2757C6.95317 37.4909 7.39522 37.5343 7.80343 37.3966L8.38166 37.2008L10.0053 39.9841H10.005C10.2336 40.3754 10.596 40.6525 11.0129 40.7543C11.4301 40.8561 11.8674 40.7747 12.2289 40.5274L24.1521 32.368L38.1156 32.3683C38.542 32.3676 38.9511 32.1838 39.2529 31.8571C39.5542 31.5304 39.7239 31.0873 39.7242 30.6254V26.6379L40.5796 26.3497C40.9875 26.2119 41.3284 25.9043 41.5271 25.4946C41.7258 25.0849 41.7662 24.6065 41.6396 24.1644L40.7364 21.0206L41.2482 20.6705C41.6103 20.4242 41.8665 20.031 41.9596 19.5788ZM34.5412 5.33064C34.7758 5.25317 35.0242 5.39449 35.0987 5.64764L36.1056 9.15123H23.2032L34.5412 5.33064ZM30.3925 2.06013C30.6008 1.91946 30.8747 1.98656 31.0069 2.21053L32.4639 4.70502L20.7591 8.65164L30.3925 2.06013ZM1.50249 16.6137C1.55696 16.5006 1.65063 16.4156 1.76316 16.3771L2.27224 16.2059V19.7698L1.47045 16.9815C1.43543 16.8593 1.44682 16.7268 1.50249 16.6137ZM1.23163 22.581V22.5813C1.10174 22.3557 1.16339 22.0591 1.3702 21.9159L1.61771 21.7467L2.27075 24.0201V24.3624L1.23163 22.581ZM7.45616 36.1903C7.22182 36.2677 6.97371 36.1271 6.89859 35.8749L5.89177 32.3713L18.7941 32.371L7.45616 36.1903ZM11.6048 39.4608C11.3968 39.6031 11.1221 39.536 10.9904 39.311L9.53344 36.8135L21.2382 32.8692L11.6048 39.4608ZM38.5587 30.6269V30.6266C38.5584 30.8911 38.3606 31.1053 38.1167 31.106H3.88186C3.63764 31.1053 3.43981 30.8911 3.43981 30.6266V10.8943C3.43981 10.6298 3.63764 10.4156 3.88186 10.4156H38.1159C38.3601 10.4156 38.558 10.6298 38.558 10.8943L38.5587 30.6269ZM40.2344 25.1442L39.7253 25.3153V21.7512L40.5271 24.5394H40.5268C40.6002 24.7935 40.4694 25.0642 40.2347 25.1439L40.2344 25.1442ZM40.8216 19.301L40.8213 19.3007C40.7962 19.4255 40.7256 19.5341 40.6259 19.6025L40.379 19.7717L39.7253 17.4985V17.1562L40.7642 18.937V18.9373C40.8273 19.0453 40.8483 19.1759 40.822 19.3007L40.8216 19.301ZM36.7636 15.6024L36.7633 25.919C36.7633 26.2678 36.502 26.5505 36.18 26.5505C35.6955 26.5511 35.2312 26.7595 34.8886 27.1307C34.5462 27.5015 34.3535 28.0045 34.3532 28.529C34.3532 28.8781 34.0919 29.1611 33.7696 29.1611H31.9909C31.6752 29.1517 31.4238 28.8716 31.4238 28.5293C31.4238 28.187 31.6752 27.907 31.9909 27.8976H33.2438C33.3605 27.2688 33.646 26.6915 34.0647 26.238C34.4831 25.7842 35.0164 25.475 35.5971 25.3486V16.172C35.0164 16.0456 34.4831 15.7364 34.0647 15.2826C33.646 14.8291 33.3605 14.2518 33.2438 13.623H18.3264C18.169 13.6279 18.0163 13.5634 17.9035 13.4444C17.7904 13.3255 17.7266 13.1618 17.7266 12.9913C17.7266 12.8205 17.7904 12.6571 17.9035 12.5381C18.0163 12.4192 18.169 12.3547 18.3264 12.3595H33.7724C34.0947 12.3595 34.356 12.6425 34.356 12.9916C34.3563 13.5161 34.5491 14.0191 34.8914 14.39C35.2341 14.7611 35.6983 14.9695 36.1828 14.9702C36.5043 14.9715 36.764 15.2541 36.764 15.6022L36.7636 15.6024ZM27.5381 28.5295C27.5381 28.6971 27.4768 28.8579 27.3675 28.9765C27.2583 29.0952 27.1099 29.1616 26.9551 29.1616H8.22836C7.90603 29.1616 7.64475 28.8786 7.64475 28.5295C7.64415 28.0051 7.45172 27.502 7.10903 27.1312C6.76664 26.7601 6.30218 26.5516 5.81788 26.551C5.49675 26.5497 5.23697 26.2674 5.23697 25.9196V15.6021C5.23697 15.4345 5.29832 15.2737 5.40756 15.1551C5.5171 15.0364 5.66525 14.97 5.81998 14.97C6.30452 14.9693 6.76873 14.7609 7.11136 14.3898C7.45375 14.019 7.64648 13.5159 7.64678 12.9914C7.64678 12.6424 7.90806 12.3594 8.23039 12.3594H13.2895C13.4472 12.3545 13.5999 12.419 13.7127 12.538C13.8255 12.6569 13.8893 12.8203 13.8893 12.9911C13.8893 13.1616 13.8255 13.3253 13.7127 13.4442C13.5999 13.5632 13.4472 13.6277 13.2895 13.6228H8.75445C8.63803 14.2517 8.35251 14.8293 7.93381 15.2827C7.51511 15.7362 6.98176 16.0454 6.40116 16.1718V25.3484C6.98177 25.4748 7.51509 25.7841 7.93381 26.2375C8.3525 26.691 8.63803 27.2686 8.75445 27.8974H26.9556H26.9553C27.2774 27.8978 27.538 28.1804 27.538 28.5288L27.5381 28.5295ZM34.1454 21.3924L28.8813 21.3927C28.559 21.3927 28.2977 21.1098 28.2977 20.7607C28.2977 20.4116 28.559 20.1286 28.8813 20.1286H34.1458C34.4678 20.1286 34.7291 20.4116 34.7291 20.7607C34.7291 21.1098 34.4678 21.3927 34.1458 21.3927L34.1454 21.3924ZM13.1171 20.1287C13.4394 20.1287 13.7007 20.4116 13.7007 20.7607C13.7007 21.1098 13.4394 21.3928 13.1171 21.3928H7.85266C7.53063 21.3928 7.26935 21.1098 7.26935 20.7607C7.26935 20.4116 7.53063 20.1287 7.85266 20.1287H13.1171ZM20.9995 26.9621C22.518 26.9621 23.9744 26.3086 25.0482 25.1456C26.1221 23.9826 26.7255 22.4054 26.7255 20.7607C26.7255 19.116 26.1221 17.5388 25.0482 16.3758C23.9744 15.2128 22.5181 14.5593 20.9995 14.5593C19.4808 14.5593 18.0246 15.2128 16.9507 16.3758C15.8769 17.5388 15.2735 19.116 15.2735 20.7607C15.2753 22.4047 15.8792 23.981 16.9525 25.1436C18.026 26.306 19.4815 26.9601 20.9994 26.962L20.9995 26.9621ZM20.9995 15.8239C22.2086 15.8239 23.3683 16.3441 24.2234 17.2702C25.0784 18.1963 25.5588 19.4523 25.5588 20.7618C25.5588 22.0713 25.0785 23.3273 24.2231 24.2533C23.368 25.1794 22.2083 25.6996 20.9992 25.6993C19.7901 25.6993 18.6303 25.1791 17.7753 24.253C16.9202 23.3266 16.4401 22.0706 16.4401 20.7611C16.4416 19.452 16.9223 18.1969 17.777 17.2715C18.6318 16.3458 19.7906 15.8252 20.9995 15.8239ZM19.5004 22.7335V22.1037C19.5094 21.7618 19.7679 21.4895 20.0837 21.4895C20.3997 21.4895 20.6583 21.7618 20.667 22.1037V22.6369H21.3317L21.332 21.3932H20.5787C19.9834 21.3923 19.5013 20.8701 19.5004 20.2257V18.7889C19.5016 18.2129 19.8901 17.7238 20.4159 17.6366V17.3121V17.3124C20.4159 16.9633 20.6772 16.6804 20.9995 16.6804C21.3218 16.6804 21.5831 16.9633 21.5831 17.3124V17.6369V17.6366C22.109 17.7238 22.4975 18.2129 22.4986 18.7889V19.4187C22.4896 19.7606 22.2311 20.0329 21.9153 20.0329C21.5993 20.0329 21.3407 19.7606 21.332 19.4187V18.8855H20.667V20.1295H21.4203V20.1292C22.0165 20.1301 22.4989 20.6539 22.4986 21.2993V22.7358C22.4974 23.3118 22.1089 23.8013 21.5831 23.8882V24.2126C21.5831 24.5617 21.3218 24.8447 20.9995 24.8447C20.6772 24.8447 20.4159 24.5617 20.4159 24.2126V23.8882C19.8894 23.801 19.5004 23.3106 19.5004 22.7336L19.5004 22.7335Z" fill="black"/>
</svg>
