<svg width="27" height="32" viewBox="0 0 27 32" fill="none" xmlns="http://www.w3.org/2000/svg">
<g id="Avatar">
<path id="Vector" d="M13.5 15.4466C17.6207 15.4466 20.9564 12.1894 20.9564 8.16615C20.9564 4.14268 17.6205 0.885712 13.5 0.885712C9.37936 0.885712 6.0437 4.14289 6.0437 8.16615C6.0437 12.1894 9.37929 15.4466 13.5 15.4466Z" fill="#848478"/>
<path id="Vector_2" d="M1.17746 32H25.8226C26.4897 32 27 31.5018 27 30.8504V26.6353C27 20.9258 22.2514 16.2894 16.4042 16.2894L10.5958 16.2897C4.74844 16.2897 0 20.9263 0 26.6355V30.8507C0 31.5018 0.510254 32 1.17739 32L1.17746 32Z" fill="#848478"/>
</g>
</svg>
