<svg width="18" height="18" viewBox="0 0 18 18" fill="none" xmlns="http://www.w3.org/2000/svg">
<g id="Configura&#195;&#167;&#195;&#181;es">
<path id="Vector" d="M17.4706 6.88237H15.5419C15.4299 6.53458 15.2901 6.19652 15.1236 5.87119L16.4874 4.50798H16.4875C16.5867 4.40867 16.6425 4.274 16.6425 4.13361C16.6425 3.99322 16.5867 3.85868 16.4875 3.75937L14.2412 1.51302C14.1418 1.41384 14.0073 1.35801 13.8669 1.35801C13.7265 1.35801 13.5919 1.41384 13.4926 1.51302L12.1288 2.87637C11.8035 2.71006 11.4653 2.5702 11.1177 2.45813V0.529379C11.1177 0.388991 11.0618 0.25432 10.9627 0.155146C10.8633 0.0558355 10.7287 0 10.5883 0H7.41174C7.27136 0 7.13669 0.0558355 7.03738 0.155146C6.9382 0.254323 6.88236 0.388994 6.88236 0.529379V2.45813C6.53471 2.57021 6.19652 2.71006 5.8712 2.87637L4.50799 1.51302C4.40868 1.41384 4.27401 1.35801 4.13362 1.35801C3.99323 1.35801 3.85869 1.41384 3.75939 1.51302L1.5125 3.75883C1.41332 3.85814 1.35749 3.99268 1.35749 4.13306C1.35749 4.27345 1.41332 4.40812 1.5125 4.50743L2.87636 5.87116C2.70991 6.19647 2.57006 6.53454 2.45812 6.88233H0.529377C0.388989 6.88233 0.254318 6.93817 0.155145 7.03735C0.0558353 7.13666 0 7.27133 0 7.41172V10.5883C0 10.7287 0.0558353 10.8633 0.155145 10.9626C0.254322 11.0618 0.388992 11.1177 0.529377 11.1177H2.45812C2.56993 11.4653 2.70978 11.8033 2.87636 12.1283L1.5125 13.492C1.41332 13.5913 1.35749 13.726 1.35749 13.8664C1.35749 14.0068 1.41332 14.1413 1.5125 14.2406L3.75884 16.487C3.85815 16.5862 3.99269 16.642 4.13308 16.642C4.27346 16.642 4.40813 16.5862 4.50744 16.487L5.87065 15.1238V15.1236C6.19596 15.2899 6.53417 15.4298 6.88182 15.5419V17.4706C6.88182 17.611 6.93765 17.7457 7.03683 17.8449C7.13614 17.9442 7.27081 18 7.4112 18H10.5877C10.7281 18 10.8628 17.9442 10.9621 17.8449C11.0613 17.7457 11.1171 17.611 11.1171 17.4706V15.5419C11.4648 15.4298 11.803 15.2899 12.1283 15.1236L13.4915 16.4868V16.487C13.5908 16.5862 13.7255 16.642 13.8659 16.642C14.0063 16.642 14.1408 16.5862 14.2401 16.487L16.4875 14.2412C16.5867 14.1419 16.6425 14.0073 16.6425 13.8669C16.6425 13.7265 16.5867 13.5919 16.4875 13.4926L15.1238 12.1288H15.1236C15.2902 11.8037 15.4301 11.4655 15.5419 11.1177H17.4706C17.611 11.1177 17.7457 11.0618 17.8449 10.9626C17.9442 10.8633 18 10.7287 18 10.5883V7.41172C18 7.27133 17.9442 7.13666 17.8449 7.03735C17.7457 6.93817 17.611 6.88237 17.4706 6.88237ZM16.9412 10.0588H15.1444C15.027 10.0589 14.9129 10.0979 14.8203 10.1698C14.7275 10.2416 14.6613 10.3422 14.6319 10.4559C14.4967 10.9814 14.2881 11.4853 14.0125 11.9526C13.9527 12.0538 13.9282 12.1718 13.943 12.2884C13.9577 12.405 14.0109 12.5133 14.094 12.5963L15.3645 13.8668L13.8668 15.3646L12.5963 14.0941C12.5133 14.011 12.4049 13.9578 12.2884 13.943C12.1718 13.9283 12.0537 13.9527 11.9525 14.0126C11.4853 14.2882 10.9814 14.4968 10.4559 14.6319C10.3422 14.6613 10.2415 14.7275 10.1698 14.8203C10.0978 14.913 10.0589 15.0271 10.0588 15.1444V16.9412H7.94123V15.1444C7.94109 15.0271 7.90214 14.913 7.83022 14.8203C7.75843 14.7275 7.65779 14.6613 7.54413 14.6319C7.01862 14.4967 6.51475 14.2881 6.04744 14.0126C5.94627 13.9527 5.82822 13.9283 5.71162 13.943C5.59503 13.9578 5.48668 14.011 5.40373 14.0941L4.13319 15.3646L2.63599 13.8664L3.90653 12.5959V12.5958C3.98962 12.5128 4.04279 12.4045 4.05755 12.2879C4.07231 12.1713 4.04785 12.0532 3.98802 11.9521C3.71243 11.4848 3.50383 10.9809 3.36865 10.4554C3.33927 10.3418 3.27279 10.2412 3.18 10.1694C3.08707 10.0976 2.97301 10.0588 2.85562 10.0588H1.05889V7.94125H2.85562C2.97301 7.94111 3.08707 7.90216 3.17973 7.83024C3.27253 7.75845 3.33873 7.65781 3.36812 7.54414C3.50345 7.0185 3.71192 6.51449 3.98749 6.04694C4.04718 5.9459 4.07151 5.82785 4.05676 5.71139C4.042 5.59493 3.98895 5.48671 3.906 5.40375L2.63546 4.13321L4.13361 2.636L5.40415 3.90655H5.40428C5.48724 3.98964 5.59559 4.04281 5.71218 4.05757C5.82877 4.07233 5.94682 4.04786 6.04799 3.98804C6.51527 3.71245 7.01914 3.50384 7.54468 3.36866C7.65821 3.33928 7.75885 3.27281 7.83064 3.18001C7.90243 3.08708 7.94125 2.97302 7.94125 2.85563V1.05889H10.0589L10.0588 2.85563C10.0589 2.97302 10.0979 3.08709 10.1698 3.17975C10.2416 3.27254 10.3422 3.33875 10.4559 3.36813C10.9814 3.50334 11.4853 3.71194 11.9526 3.98751C12.0537 4.04733 12.1718 4.0718 12.2884 4.05704C12.405 4.04228 12.5133 3.9891 12.5963 3.90601L13.8668 2.63547L15.3646 4.13322L14.094 5.40377C14.0111 5.48672 13.958 5.59494 13.9433 5.7114C13.9285 5.82786 13.9528 5.94591 14.0125 6.04695C14.2881 6.5145 14.4966 7.01851 14.6319 7.54416C14.6613 7.65782 14.7275 7.75846 14.8203 7.83025C14.9129 7.90217 15.027 7.94113 15.1444 7.94126H16.9411L16.9412 10.0588Z" fill="white"/>
<path id="Vector_2" d="M9 5.29402C8.01715 5.29402 7.07459 5.68449 6.37956 6.37952C5.68453 7.07456 5.29407 8.01712 5.29407 8.99997C5.29407 9.98283 5.68453 10.9254 6.37956 11.6204C7.07459 12.3155 8.01715 12.7059 9 12.7059C9.98285 12.7059 10.9254 12.3155 11.6204 11.6204C12.3155 10.9254 12.7059 9.98283 12.7059 8.99997C12.7047 8.01752 12.314 7.07547 11.6192 6.38071C10.9245 5.68595 9.98245 5.29521 9 5.29402ZM9 11.6471C8.29793 11.6471 7.62471 11.3682 7.1283 10.8718C6.63189 10.3753 6.35298 9.70212 6.35298 9.00004C6.35298 8.29796 6.6319 7.62474 7.1283 7.12833C7.62471 6.63191 8.29793 6.35301 9 6.35301C9.70208 6.35301 10.3753 6.63192 10.8717 7.12833C11.3681 7.62474 11.647 8.29796 11.647 9.00004C11.6462 9.70185 11.367 10.3747 10.8708 10.8708C10.3746 11.3671 9.70177 11.6463 8.99997 11.6471L9 11.6471Z" fill="white"/>
</g>
</svg>
