<svg width="24" height="23" viewBox="0 0 24 23" fill="none" xmlns="http://www.w3.org/2000/svg">
<g id="Extrato">
<path id="Vector" d="M23.5661 16.0635C23.4257 15.9858 23.2667 15.9449 23.1045 15.9449C22.9426 15.9449 22.7833 15.9858 22.643 16.0635L21.2308 16.7103V3.525C21.2308 2.81986 20.939 2.14383 20.4198 1.64518C19.9003 1.14674 19.1961 0.866669 18.4615 0.866669H2.76923C2.03467 0.866669 1.33044 1.14674 0.810989 1.64518C0.291755 2.14382 0 2.81986 0 3.525V10.6139C0.00103021 10.921 0.167515 11.2057 0.440113 11.3665C0.712916 11.5271 1.05267 11.5407 1.33845 11.4025L2.76922 10.7202L3.6923 11.1633V19.475C3.6923 20.1801 3.98405 20.8562 4.50329 21.3548C5.02273 21.8533 5.72697 22.1333 6.46153 22.1333H21.2308C21.9653 22.1333 22.6696 21.8533 23.189 21.3548C23.7082 20.8562 24 20.1801 24 19.475V16.8167C24.0006 16.5105 23.8366 16.2257 23.5661 16.0635L23.5661 16.0635ZM3.69247 9.17822L3.18477 8.93889V8.93909C2.92351 8.8127 2.61526 8.8127 2.35401 8.93909L1.84631 9.17822V3.52484C1.84631 3.20818 2.02227 2.91566 2.30785 2.75742C2.59343 2.59919 2.94535 2.59919 3.23093 2.75742C3.5165 2.91566 3.69247 3.20819 3.69247 3.52484V9.17822ZM7.81873 16.0635C7.54819 16.2257 7.38418 16.5106 7.3848 16.8167V19.4751C7.3848 19.7917 7.20884 20.0843 6.92326 20.2425C6.63768 20.4007 6.28575 20.4007 6.00018 20.2425C5.71461 20.0843 5.53864 19.7917 5.53864 19.4751V3.5251C5.53617 3.22287 5.47992 2.9232 5.37257 2.63899H18.4618C18.7066 2.63899 18.9415 2.73235 19.1146 2.89849C19.2876 3.06463 19.3849 3.29012 19.3849 3.5251V15.9306C19.2404 15.9314 19.0981 15.9648 18.9695 16.0281L17.5387 16.7103L16.108 16.0279V16.0281C15.8467 15.9017 15.5384 15.9017 15.2772 16.0281L13.8464 16.7103L12.4157 16.0279V16.0281C12.1544 15.9017 11.8461 15.9017 11.5849 16.0281L10.1541 16.7103L8.72334 16.0279V16.0281C8.43612 15.8873 8.09307 15.9007 7.81883 16.0635L7.81873 16.0635ZM22.1539 19.4751C22.1539 19.71 22.0566 19.9355 21.8835 20.1017C21.7105 20.2678 21.4756 20.3612 21.2308 20.3612H9.07359C9.17805 20.0765 9.231 19.7769 9.23059 19.4751V18.2523L9.73828 18.4917V18.4915C9.99955 18.6179 10.3078 18.6179 10.5691 18.4915L11.9998 17.8093L13.4306 18.4917V18.4915C13.6919 18.6179 14.0001 18.6179 14.2614 18.4915L15.6921 17.8093L17.1229 18.4917V18.4915C17.3842 18.6179 17.6924 18.6179 17.9537 18.4915L19.3844 17.8093L20.8152 18.4917V18.4915C21.0765 18.6179 21.3847 18.6179 21.646 18.4915L22.1537 18.2522L22.1539 19.4751Z" fill="black"/>
<path id="Vector_2" d="M8.30784 5.29757C8.06306 5.29757 7.82817 5.39093 7.6551 5.55707C7.48202 5.72322 7.38477 5.9487 7.38477 6.18368C7.38477 6.41865 7.48202 6.64414 7.6551 6.81028C7.82817 6.97643 8.06306 7.06979 8.30784 7.06979C8.55262 7.06979 8.78752 6.97643 8.96059 6.81028C9.13366 6.64414 9.23092 6.41865 9.23092 6.18368C9.23092 5.9487 9.13366 5.72322 8.96059 5.55707C8.78752 5.39093 8.55262 5.29757 8.30784 5.29757Z" fill="black"/>
<path id="Vector_3" d="M12.0002 7.06979H16.6156C16.9455 7.06979 17.2502 6.90088 17.415 6.62673C17.5799 6.35259 17.5799 6.01476 17.415 5.74062C17.2502 5.46649 16.9455 5.29757 16.6156 5.29757H12.0002C11.6703 5.29757 11.3656 5.46648 11.2008 5.74062C11.0359 6.01477 11.0359 6.3526 11.2008 6.62673C11.3656 6.90087 11.6703 7.06979 12.0002 7.06979Z" fill="black"/>
<path id="Vector_4" d="M8.30784 8.842C8.06306 8.842 7.82817 8.93536 7.6551 9.10151C7.48202 9.26765 7.38477 9.49314 7.38477 9.72811C7.38477 9.96309 7.48202 10.1886 7.6551 10.3547C7.82817 10.5209 8.06306 10.6142 8.30784 10.6142C8.55262 10.6142 8.78752 10.5209 8.96059 10.3547C9.13366 10.1886 9.23092 9.96309 9.23092 9.72811C9.23092 9.49314 9.13366 9.26765 8.96059 9.10151C8.78752 8.93536 8.55262 8.842 8.30784 8.842Z" fill="black"/>
<path id="Vector_5" d="M12.0002 10.6142H16.6156C16.9455 10.6142 17.2502 10.4453 17.415 10.1712C17.5799 9.89702 17.5799 9.55919 17.415 9.28506C17.2502 9.01092 16.9455 8.842 16.6156 8.842H12.0002C11.6703 8.842 11.3656 9.01092 11.2008 9.28506C11.0359 9.5592 11.0359 9.89703 11.2008 10.1712C11.3656 10.4453 11.6703 10.6142 12.0002 10.6142Z" fill="black"/>
<path id="Vector_6" d="M8.30784 12.3864C8.06306 12.3864 7.82817 12.4798 7.6551 12.6459C7.48202 12.8121 7.38477 13.0376 7.38477 13.2726C7.38477 13.5075 7.48202 13.733 7.6551 13.8992C7.82817 14.0653 8.06306 14.1587 8.30784 14.1587C8.55262 14.1587 8.78752 14.0653 8.96059 13.8992C9.13366 13.733 9.23092 13.5075 9.23092 13.2726C9.23092 13.0376 9.13366 12.8121 8.96059 12.6459C8.78752 12.4798 8.55262 12.3864 8.30784 12.3864Z" fill="black"/>
<path id="Vector_7" d="M12.0002 14.1587H16.6156C16.9455 14.1587 17.2502 13.9898 17.415 13.7156C17.5799 13.4415 17.5799 13.1036 17.415 12.8295C17.2502 12.5554 16.9455 12.3864 16.6156 12.3864H12.0002C11.6703 12.3864 11.3656 12.5554 11.2008 12.8295C11.0359 13.1036 11.0359 13.4415 11.2008 13.7156C11.3656 13.9897 11.6703 14.1587 12.0002 14.1587Z" fill="black"/>
</g>
</svg>
