<svg width="35" height="33" viewBox="0 0 35 33" fill="none" xmlns="http://www.w3.org/2000/svg">
<path id="Investimento" d="M34.3519 0.739136H25.2778C24.9199 0.739136 24.6296 1.08091 24.6296 1.50242V31.2705H22.6852V9.13527C22.6852 8.93286 22.6169 8.73863 22.4954 8.59552C22.3738 8.45241 22.2089 8.37199 22.037 8.37199H12.963C12.605 8.37199 12.3148 8.71376 12.3148 9.13527V31.2705H10.3704V16.7681C10.3704 16.5657 10.3021 16.3715 10.1806 16.2284C10.059 16.0853 9.8941 16.0048 9.72222 16.0048H0.648148C0.290222 16.0048 0 16.3466 0 16.7681V32.0338C0 32.2362 0.0682874 32.4305 0.189815 32.5736C0.311342 32.7167 0.476274 32.7971 0.648148 32.7971H34.3519C34.5237 32.7971 34.6887 32.7167 34.8102 32.5736C34.9317 32.4305 35 32.2362 35 32.0338V1.50242C35 1.30001 34.9317 1.10578 34.8102 0.962669C34.6887 0.819555 34.5237 0.739136 34.3519 0.739136ZM1.2963 31.2705V17.5314H9.07407V31.2705H1.2963ZM13.6111 31.2705V9.89856H21.3889V31.2705H13.6111ZM25.9259 31.2705V2.26571H33.7037V31.2705H25.9259Z" fill="black"/>
</svg>
