<svg width="22" height="20" viewBox="0 0 22 20" fill="none" xmlns="http://www.w3.org/2000/svg">
<path id="Menu" d="M1.30952 0C0.586246 0 0 0.699498 0 1.5625C0 2.4255 0.586246 3.125 1.30952 3.125H20.6905C21.4138 3.125 22 2.4255 22 1.5625C22 0.699498 21.4138 0 20.6905 0H1.30952ZM1.30952 8.4375C0.586246 8.4375 0 9.137 0 10C0 10.863 0.586246 11.5625 1.30952 11.5625H20.6905C21.4138 11.5625 22 10.863 22 10C22 9.137 21.4138 8.4375 20.6905 8.4375H1.30952ZM1.30952 16.875C0.586246 16.875 0 17.5745 0 18.4375C0 19.3005 0.586246 20 1.30952 20H20.6905C21.4138 20 22 19.3005 22 18.4375C22 17.5745 21.4138 16.875 20.6905 16.875H1.30952Z" fill="white"/>
</svg>
