<svg width="19" height="20" viewBox="0 0 19 20" fill="none" xmlns="http://www.w3.org/2000/svg">
<path id="Vector" d="M9.50305 0V2.53734C5.07535 2.53734 1.22085 5.36078 0.237187 9.32846C-0.746113 13.2964 1.39682 17.3778 5.38796 19.1402C9.37895 20.9024 14.1821 19.8902 16.9382 16.705C19.6941 13.52 19.6866 8.98778 16.9196 5.81086L15.0646 7.17473C17.1473 9.56609 17.1544 12.9496 15.0805 15.3467C13.0062 17.7441 9.41872 18.5004 6.41482 17.1738C3.41084 15.8473 1.8131 12.801 2.55349 9.81449C3.29352 6.82786 6.17065 4.7197 9.50334 4.7197V7.33676L14.2521 3.66836L9.50305 0Z" fill="white"/>
</svg>
